<svg width="31" height="31" fill="none" xmlns="http://www.w3.org/2000/svg"><path fill-rule="evenodd" clip-rule="evenodd" d="M28.313 6.104a2.563 2.563 0 0 0-2.563 2.563v1.708h5.125V8.667a2.563 2.563 0 0 0-2.563-2.563Zm2.562 5.98H25.75v14.093l2.563 3.844 2.562-3.844V12.083ZM.125 2.687v25.625a2.563 2.563 0 0 0 2.563 2.562h18.791a2.563 2.563 0 0 0 2.563-2.563V2.688A2.562 2.562 0 0 0 21.479.126H2.688A2.562 2.562 0 0 0 .124 2.688Zm11.958 5.124a.854.854 0 0 1 .854-.854h6.834a.854.854 0 1 1 0 1.709h-6.834a.854.854 0 0 1-.854-.854Zm.854 2.563a.854.854 0 0 0 0 1.708h6.834a.854.854 0 0 0 0-1.708h-6.834Zm-.854 8.542a.854.854 0 0 1 .854-.855h6.834a.854.854 0 1 1 0 1.709h-6.834a.855.855 0 0 1-.854-.854Zm.854 2.562a.855.855 0 0 0 0 1.709h6.834a.854.854 0 1 0 0-1.709h-6.834ZM5.25 18.917v2.562h2.563v-2.562H5.25Zm-.854-1.709h4.27a.854.854 0 0 1 .855.855v4.27a.854.854 0 0 1-.854.855H4.396a.854.854 0 0 1-.854-.855v-4.27a.854.854 0 0 1 .854-.855Zm5.729-8.792A.854.854 0 0 0 8.917 7.21L6.104 10.02 5 8.917a.854.854 0 0 0-1.208 1.208l2.312 2.312 4.02-4.02Z" fill="#FFF"/></svg>