<svg width="32" height="34" fill="none" xmlns="http://www.w3.org/2000/svg"><path d="M12.387.502a4.715 4.715 0 0 0-4.715 4.715v5.199c.771-.219 1.56-.365 2.358-.437V5.217a2.358 2.358 0 0 1 2.357-2.357h7.073v5.894a3.536 3.536 0 0 0 3.536 3.536h5.894v16.493a2.357 2.357 0 0 1-2.358 2.357h-5.318a12.97 12.97 0 0 1-2.542 2.358h7.86a4.715 4.715 0 0 0 4.715-4.715v-17.87c0-.938-.374-1.836-1.037-2.499l-6.88-6.877A3.536 3.536 0 0 0 20.833.5l-8.445.002Zm9.43 8.25v-5.4l6.58 6.578h-5.401a1.179 1.179 0 0 1-1.179-1.179Zm0 14.14a10.609 10.609 0 1 1-21.217 0 10.609 10.609 0 0 1 21.217 0ZM11.21 17a1.18 1.18 0 0 0-1.18 1.179v4.715a1.18 1.18 0 0 0 2.358 0v-4.715A1.179 1.179 0 0 0 11.21 17Zm0 12.082a1.474 1.474 0 1 0 0-2.947 1.474 1.474 0 0 0 0 2.947Z" fill="#FFF"/></svg>