<svg width="162" height="162" viewBox="0 0 162 162" fill="none" xmlns="http://www.w3.org/2000/svg">
<path d="M10 145.606V41.8981C10 38.842 11.214 35.911 13.375 33.75C15.536 31.589 18.467 30.375 21.5231 30.375H56.0923C73.3769 30.375 73.3769 47.6596 84.9 47.6596H125.231C128.287 47.6596 131.218 48.8737 133.379 51.0347C135.54 53.1956 136.754 56.1266 136.754 59.1827V70.7058M10 145.606L31.7959 74.7734C32.1582 73.5955 32.8887 72.5647 33.8801 71.8326C34.8715 71.1005 36.0715 70.7055 37.3039 70.7058H136.754M10 145.606H122.483C124.946 145.605 127.345 144.815 129.327 143.35C131.308 141.886 132.768 139.825 133.493 137.47L151.745 78.1612C152.01 77.2994 152.07 76.3874 151.918 75.4986C151.766 74.6098 151.408 73.7689 150.873 73.0437C150.337 72.3185 149.638 71.7292 148.833 71.3231C148.028 70.917 147.139 70.7056 146.237 70.7058H136.754" stroke="white" stroke-width="6" stroke-linecap="round"/>
</svg>
